<?xml version="1.0" encoding="UTF-8" standalone="no" ?>
<!DOCTYPE svg PUBLIC "-//W3C//DTD SVG 1.1//EN" "http://www.w3.org/Graphics/SVG/1.1/DTD/svg11.dtd">
<svg xmlns="http://www.w3.org/2000/svg" xmlns:xlink="http://www.w3.org/1999/xlink" version="1.1" width="1280" height="1024" viewBox="0 0 1280 1024" xml:space="preserve">
<desc>Created with Fabric.js 4.4.0</desc>
<defs>
</defs>
<g transform="matrix(1 0 0 1 640 512)" id="background-logo"  >
<rect style="stroke: none; stroke-width: 0; stroke-dasharray: none; stroke-linecap: butt; stroke-dashoffset: 0; stroke-linejoin: miter; stroke-miterlimit: 4; fill: rgb(255,255,255); fill-opacity: 0; fill-rule: nonzero; opacity: 1;"  paint-order="stroke"  x="-640" y="-512" rx="0" ry="0" width="1280" height="1024" />
</g>
<g transform="matrix(1.0731308674075817 0 0 1.0731308674075817 640 416.2040021752539)" id="logo-logo"  >
<g style=""  paint-order="stroke"   >
		<g transform="matrix(0.6984136400990966 0 0 0.6984136400990966 -65.6578955757708 62.616548449975795)"  >
<path style="stroke: none; stroke-width: 1; stroke-dasharray: none; stroke-linecap: butt; stroke-dashoffset: 0; stroke-linejoin: miter; stroke-miterlimit: 4; fill: rgb(36,36,36); fill-rule: nonzero; opacity: 1;"  paint-order="stroke"  transform=" translate(-405.99061489687506, -656.4499817000001)" d="M 370.3999939 673 L 422.79998780000005 673 C 424.6999817000001 667.5 428.8999939 663 434.29998780000005 660.5999756 L 434.29998780000005 655.5999756 C 434.29998780000005 649 437.79998780000005 643.1999512 443.09997560000005 639.8999634 L 387.6999817000001 639.8999634 C 387.1999817000001 639.8999634 386.6999817000001 640.1999512000001 386.3999939000001 640.6999512000001 L 369.1000061000001 670.6999512000001 C 368.5 671.7000122 369.2000122 673 370.3999939 673 z" stroke-linecap="round" />
</g>
		<g transform="matrix(0.6984136400990966 0 0 0.6984136400990966 -83.82456150168122 119.1182289752854)"  >
<path style="stroke: none; stroke-width: 1; stroke-dasharray: none; stroke-linecap: butt; stroke-dashoffset: 0; stroke-linejoin: miter; stroke-miterlimit: 4; fill: rgb(36,36,36); fill-rule: nonzero; opacity: 1;"  paint-order="stroke"  transform=" translate(-379.9792873928292, -737.3500061)" d="M 341 716.7000122 L 317.8999939 756.7999877999999 C 317.1999817 758.0999756 318.10000610000003 759.7000122 319.60000610000003 759.7000122 L 431 759.7000122 C 431.8999939 759.7000122 432.7000122 759.1000366 432.8999939 758.2000122 L 442.2999878 715 L 344 715 C 342.7000122 715 341.6000061 715.5999756 341 716.7000122 z" stroke-linecap="round" />
</g>
		<g transform="matrix(0.6984136400990966 0 0 0.6984136400990966 83.85901494062028 119.1182289752854)"  >
<path style="stroke: none; stroke-width: 1; stroke-dasharray: none; stroke-linecap: butt; stroke-dashoffset: 0; stroke-linejoin: miter; stroke-miterlimit: 4; fill: rgb(36,36,36); fill-rule: nonzero; opacity: 1;"  paint-order="stroke"  transform=" translate(-620.0713572133859, -737.3500061)" d="M 682.0999756 756.7999878 L 659 716.7000122 C 658.4000244 715.7000122 657.2999878 715 656.0999756 715 L 557.7999878 715 L 567.2000122000001 758.2000122 C 567.4000244 759.1000366 568.2000122000001 759.7000122 569.1000366000001 759.7000122 L 680.500061 759.7000122 C 681.9000244 759.7000122 682.7999878 758.0999756 682.0999756 756.7999878 z" stroke-linecap="round" />
</g>
		<g transform="matrix(0.6984136400990966 0 0 0.6984136400990966 0.03445343893906738 97.39756050788034)"  >
<polygon style="stroke: none; stroke-width: 1; stroke-dasharray: none; stroke-linecap: butt; stroke-dashoffset: 0; stroke-linejoin: miter; stroke-miterlimit: 4; fill: rgb(36,36,36); fill-rule: nonzero; opacity: 1;"  paint-order="stroke"  points="-54.04998780000005,-8.75 -57.75000000000006,8.75 57.75,8.75 53.95001219999995,-8.75 " />
</g>
		<g transform="matrix(0.6984136400990966 0 0 0.6984136400990966 65.65699477287461 62.68643667754074)"  >
<path style="stroke: none; stroke-width: 1; stroke-dasharray: none; stroke-linecap: butt; stroke-dashoffset: 0; stroke-linejoin: miter; stroke-miterlimit: 4; fill: rgb(36,36,36); fill-rule: nonzero; opacity: 1;"  paint-order="stroke"  transform=" translate(-594.0094089313292, -656.5500487999999)" d="M 565.7000122 655.7000122 L 565.7000122 660.7000122 C 571.1000366 663 575.2000122 667.5 577.2000122 673.1000366 L 629.6000366 673.1000366 C 630.8000487999999 673.1000366 631.500061 671.8000487999999 630.9000244 670.8000487999999 L 613.6000366 640.8000487999999 C 613.3000487999999 640.3000487999999 612.8000487999999 640.0000609999998 612.3000487999999 640.0000609999998 L 556.9000243999999 640.0000609999998 C 562.2000122 643.2000122 565.7000122 649 565.7000122 655.7000122 z" stroke-linecap="round" />
</g>
		<g transform="matrix(0.6984136400990966 0 0 0.6984136400990966 -0.03536023296999247 -23.920688475010138)"  >
<path style="stroke: none; stroke-width: 1; stroke-dasharray: none; stroke-linecap: butt; stroke-dashoffset: 0; stroke-linejoin: miter; stroke-miterlimit: 4; fill: rgb(36,36,36); fill-rule: nonzero; opacity: 1;"  paint-order="stroke"  transform=" translate(-499.95002745000005, -532.5445595311156)" d="M 439.1000061 408 L 456.3000183 457.7000122 C 452.2000122 457.7000122 448.8000183 461 448.8000183 465.2000122 L 448.8000183 475.8000183 C 448.8000183 479.90002439999995 452.1000061 483.3000183 456.3000183 483.3000183 L 464.0000305 483.3000183 C 465.9000244 483.3000183 467.4000244 484.8000183 467.4000244 486.7000122 C 467.4000244 488.5 465.9000244 490 464.0000305 490 L 456.3000183 490 C 452.2000122 490 448.8000183 493.2999878 448.8000183 497.5 L 448.8000183 508.1000061 C 448.8000183 512.2000122 452.1000061 515.5999756 456.3000183 515.5999756 L 466.5000305 515.5999756 C 466.5000305 515.5999756 458.2000427 592.1999512 460.4000244 645.3999633999999 L 450.6000366 645.3999633999999 C 445.00003050000004 645.3999633999999 440.4000244 649.9999389999999 440.4000244 655.5999755999999 L 440.4000244 667.0999755999999 C 433.4000244 667.0999755999999 427.80001830000003 672.7999877999998 427.80001830000003 679.6999511999999 L 427.80001830000003 691.1999511999999 L 572.1000366000001 691.1999511999999 L 572.1000366000001 679.6999511999999 C 572.1000366000001 672.6999511999999 566.4000244000001 667.0999755999999 559.5000610000001 667.0999755999999 L 559.5000610000001 655.5999755999999 C 559.5000610000001 649.9999999999999 554.9000854000001 645.3999633999999 549.3000488000001 645.3999633999999 L 539.5000610000001 645.3999633999999 C 541.7000732 592.0999755999999 533.4000854000001 515.5999755999999 533.4000854000001 515.5999755999999 L 543.6000976 515.5999755999999 C 547.7000732 515.5999755999999 551.1000976 512.2999877999998 551.1000976 508.0999755999999 L 551.1000976 497.4999694999999 C 551.1000976 493.39996339999993 547.8001098 489.9999694999999 543.6000976 489.9999694999999 L 536 489.9999694999999 C 534.2000122 489.9999694999999 532.7000122 488.4999694999999 532.5999756 486.6999816999999 C 532.5999756 484.7999877999999 534.0999756 483.2999877999999 536 483.2999877999999 L 543.7000122 483.2999877999999 C 547.7999877999999 483.2999877999999 551.2000122 479.9999999999999 551.2000122 475.7999877999999 L 551.2000122 465.1999816999999 C 551.2000122 461.09997559999994 547.9000243999999 457.6999816999999 543.7000122 457.6999816999999 L 560.9000243999999 407.9999694999999 C 565 407.0999756 568.5 403.8999634 569.2000122 399.1999817 C 569.9000243999999 394.59997560000005 567.5 389.9999695 563.2999877999999 387.9999695 C 557.4999999999999 385.1999817 550.7000122 388.1999817 548.5999756 394.0999756 C 547.5999756 397.0999756 548 400.2999878 549.5 402.8999634 L 531.2000122 419.4999695 C 530.5 420.1999817 529.6000366 420.6999817 528.6000366 420.9999695 C 525.3000487999999 422.0999756 521.9000244 420.5999756 520.4000244 417.6999817 L 508.7000122 396.0999756 C 511.5 393.4999695 513.1000366 389.5999756 512.7000122 385.3999634 C 512.1000366 379.5999756 507.49999999999994 374.7999573 501.70001219999995 373.99996949999996 C 493.99999999999994 372.99996949999996 487.3000182999999 378.8999634 487.1000061 386.3999634 C 487 390.1999512 488.6000061 393.5999756 491.1000061 395.99996949999996 L 479.5 417.3999634 C 478.7000122 418.7999573 477.6000061 419.99996949999996 476.1000061 420.5999756 C 473.5 421.69998169999997 470.70001219999995 421.0999756 468.8000183 419.3999634 L 450.3999939 403 C 452.29998780000005 399.7999878 452.5 395.7000122 450.29998780000005 392 C 448.09997560000005 388.3999939 443.8999939 386.5 439.79998780000005 387.1000061 C 433.00000000000006 388.1000061 429.09997560000005 394.89999389999997 431.1999817000001 401.1000061 C 432.5 404.7999878 435.5 407.2999878 439.1000061 408 z M 565 682.9000244 C 565.7999878 682.9000244 566.4000244 683.6000366 566.4000244 684.3000488 C 566.4000244 685.1000366000001 565.7000122000001 685.7000732 565 685.7000732 L 435 685.7000732 C 434.2000122 685.7000732 433.6000061 685.0000610000001 433.6000061 684.3000488 C 433.6000061 683.500061 434.3000183 682.9000244 435 682.9000244 L 565 682.9000244 z M 553.2000122 662.7000122 C 554 662.7000122 554.6000366 663.4000243999999 554.6000366 664.1000366 C 554.6000366 664.8000488 553.9000244 665.500061 553.2000122 665.500061 L 446.7999878 665.500061 C 446 665.500061 445.39999389999997 664.8000488 445.39999389999997 664.1000366 C 445.39999389999997 663.4000243999999 446.1000061 662.7000122 446.7999878 662.7000122 L 553.2000122 662.7000122 z M 544.7000122 508.2000122 C 545.5 508.2000122 546.1000366 508.9000244 546.1000366 509.60000610000003 C 546.1000366 510.29998780000005 545.4000244 511 544.7000122 511 L 455.3000182999999 511 C 454.5000304999999 511 453.9000243999999 510.2999878 453.9000243999999 509.6000061 C 453.9000243999999 508.90002439999995 454.6000365999999 508.20001219999995 455.3000182999999 508.20001219999995 L 544.7000122 508.20001219999995 z M 551.7999878 393.8999939 C 552.7999878 392.10000610000003 554.2000122000001 391 554.8999634 391.3999939 C 555.5999756 391.79998780000005 555.2999878 393.5 554.2999878 395.29998780000005 C 553.2999878 397.0999756000001 551.8999634 398.1999817000001 551.2000122000001 397.79998780000005 C 550.5999756 397.3999939 550.7999878 395.7000122 551.7999878 393.8999939 z M 530 454.7000122 L 550.5999756 418 C 550.8999634 417.3999939 551.8999634 417.7999878 551.5999756 418.5 L 537.0999756 456.2999878 C 536.7999878 457 536.0999756 457.5 535.3999634 457.5 L 531.5999756 457.5 C 530.2000122 457.3999939 529.4000244 455.8999939 530 454.7000122 z M 493 380.6000061 C 494.6000061 378.8000183 496.3999939 377.89999389999997 497.1000061 378.5 C 497.8000182999999 379.10000610000003 497.1000061 381 495.5 382.7999878 C 493.8999939 384.5999756 492.1000061 385.5 491.3999939 384.89999389999997 C 490.7000122 384.2999878 491.3999939 382.2999878 493 380.6000061 z M 544.7000122 475.3999939 C 545.5 475.3999939 546.1000366 476.10000610000003 546.1000366 476.79998780000005 C 546.1000366 477.59997560000005 545.4000244 478.1999817000001 544.7000122 478.1999817000001 L 455.3000182999999 478.1999817000001 C 454.5000304999999 478.1999817000001 453.9000243999999 477.4999695000001 453.9000243999999 476.79998780000005 C 453.9000243999999 476.00000000000006 454.6000365999999 475.3999939 455.3000182999999 475.3999939 L 544.7000122 475.3999939 z M 449.3999939 418 L 470 454.7000122 C 470.7000122 455.9000244 469.7999878 457.4000244 468.3999939 457.4000244 L 464.60000610000003 457.4000244 C 463.80001830000003 457.4000244 463.2000122 456.9000244 462.8999939 456.2000122 L 448.3999939 418.4000244 C 448.1000061 417.7999878 449 417.2999878 449.3999939 418 z M 434.1000061 393.8999939 C 435.1000061 392.10000610000003 436.5 391 437.20001219999995 391.3999939 C 437.9000243999999 391.79998780000005 437.6000061 393.5 436.6000061 395.29998780000005 C 435.6000061 397.0999756000001 434.20001219999995 398.1999817000001 433.5 397.79998780000005 C 432.79998780000005 397.3999939 433.1000061 395.7000122 434.1000061 393.8999939 z" stroke-linecap="round" />
</g>
		<g transform="matrix(0.6984136400990966 0 0 0.6984136400990966 -21.326897517123257 9.57202396380282)"  >
<path style="stroke: none; stroke-width: 1; stroke-dasharray: none; stroke-linecap: butt; stroke-dashoffset: 0; stroke-linejoin: miter; stroke-miterlimit: 4; fill: rgb(223,223,223); fill-rule: nonzero; opacity: 1;"  paint-order="stroke"  transform=" translate(-469.4644583521052, -580.4999694999999)" d="M 474.2000122 515.5999756 L 471.2000122 515.5999756 C 471.2000122 515.5999756 462.9000244 592.1999512 465.10000610000003 645.3999633999999 L 468.10000610000003 645.3999633999999 C 465.8999939 592.2000122 474.2000122 515.5999756 474.2000122 515.5999756 z" stroke-linecap="round" />
</g>
		<g transform="matrix(0.6984136400990966 0 0 0.6984136400990966 21.325972740101918 9.57202396380282)"  >
<path style="stroke: none; stroke-width: 1; stroke-dasharray: none; stroke-linecap: butt; stroke-dashoffset: 0; stroke-linejoin: miter; stroke-miterlimit: 4; fill: rgb(223,223,223); fill-rule: nonzero; opacity: 1;"  paint-order="stroke"  transform=" translate(-530.535531149557, -580.4999694999999)" d="M 525.7999878 515.5999756 L 528.7999878 515.5999756 C 528.7999878 515.5999756 537.0999756000001 592.1999512 534.8999634 645.3999633999999 L 531.8999634 645.3999633999999 C 534.0999756 592.2000122 525.7999878 515.5999756 525.7999878 515.5999756 z" stroke-linecap="round" />
</g>
		<g transform="matrix(0.6984136400990966 0 0 0.6984136400990966 113.27731896155245 125.42055531682357)"  >
<path style="stroke: none; stroke-width: 1; stroke-dasharray: none; stroke-linecap: butt; stroke-dashoffset: 0; stroke-linejoin: miter; stroke-miterlimit: 4; fill: rgb(223,223,223); fill-rule: nonzero; opacity: 1;"  paint-order="stroke"  transform=" translate(-662.192962995252, -746.3737793765986)" d="M 663.2000122 740.9000244 L 664.2999877999999 748.8000488 C 664.2999877999999 749.1000366000001 664.0999756 749.4000244 663.8999633999999 749.4000244 L 654.0999755999999 751.4000244 C 653.3999634 751.5 653.5 752.5 654.1999512 752.5 L 670.1999512 752.5 C 670.5999756 752.5 670.8999633999999 752 670.6999512 751.7000122 L 664.1999512 740.5 C 664 740 663.2000122 740.2999878 663.2000122 740.9000244 z" stroke-linecap="round" />
</g>
		<g transform="matrix(0.6984136400990966 0 0 0.6984136400990966 96.99537357886976 94.3303218876159)"  >
<path style="stroke: none; stroke-width: 1; stroke-dasharray: none; stroke-linecap: butt; stroke-dashoffset: 0; stroke-linejoin: miter; stroke-miterlimit: 4; fill: rgb(36,36,36); fill-rule: nonzero; opacity: 1;"  paint-order="stroke"  transform=" translate(-638.8802089940953, -701.8582778969935)" d="M 639.7000122 696.5999756 L 640.7999877999999 704.0999756 C 640.7999877999999 704.3999634 640.7000122 704.5999756 640.3999633999999 704.6999512 L 631.1999512 706.5999756 C 630.5999756 706.6999512 630.6999512 707.6999512 631.2999268 707.6999512 L 646.3999024 707.6999512 C 646.7999268 707.6999512 647.0999145999999 707.2999268 646.8999024 706.8999633999999 L 640.7999268 696.2999877999999 C 640.4000244 695.7999878 639.5999756 696 639.7000122 696.5999756 z" stroke-linecap="round" />
</g>
		<g transform="matrix(0.6984136400990966 0 0 0.6984136400990966 81.16775990736858 67.74544203818826)"  >
<path style="stroke: none; stroke-width: 1; stroke-dasharray: none; stroke-linecap: butt; stroke-dashoffset: 0; stroke-linejoin: miter; stroke-miterlimit: 4; fill: rgb(223,223,223); fill-rule: nonzero; opacity: 1;"  paint-order="stroke"  transform=" translate(-616.2179745204737, -663.7936148906188)" d="M 617 659.4000244 L 617.9000244 665.7000122000001 C 617.9000244 665.9000244 617.8000488 666.2000122000001 617.5 666.2000122000001 L 609.7999878 667.7999878 C 609.2999878 667.8999634 609.3999634 668.7000122000001 609.8999634 668.7000122000001 L 622.499939 668.7000122000001 C 622.7999268000001 668.7000122000001 623.0999146 668.2999878 622.8999634 668.0000000000001 L 617.7999878 659.0999756000001 C 617.5 658.7000122 616.9000244 658.9000244 617 659.4000244 z" stroke-linecap="round" />
</g>
		<g transform="matrix(0.6984136400990966 0 0 0.6984136400990966 -113.1385945884727 125.42055531682357)"  >
<path style="stroke: none; stroke-width: 1; stroke-dasharray: none; stroke-linecap: butt; stroke-dashoffset: 0; stroke-linejoin: miter; stroke-miterlimit: 4; fill: rgb(223,223,223); fill-rule: nonzero; opacity: 1;"  paint-order="stroke"  transform=" translate(-338.0069784290006, -746.3737793765986)" d="M 337 740.9000244 L 335.8999939 748.8000488 C 335.8999939 749.1000366000001 336.10000610000003 749.4000244 336.29998780000005 749.4000244 L 346.09997560000005 751.4000244 C 346.7999878 751.5 346.6999817 752.5 345.9999695 752.5 L 329.9999695 752.5 C 329.5999756 752.5 329.2999573 752 329.4999695 751.7000122 L 335.9999695 740.5 C 336.2999878 740 337.1000061 740.2999878 337 740.9000244 z" stroke-linecap="round" />
</g>
		<g transform="matrix(0.6984136400990966 0 0 0.6984136400990966 -96.75189077681046 94.3303218876159)"  >
<path style="stroke: none; stroke-width: 1; stroke-dasharray: none; stroke-linecap: butt; stroke-dashoffset: 0; stroke-linejoin: miter; stroke-miterlimit: 4; fill: rgb(36,36,36); fill-rule: nonzero; opacity: 1;"  paint-order="stroke"  transform=" translate(-361.46972725122737, -701.8582778969935)" d="M 360.6000061 696.5999756 L 359.5 704.0999756 C 359.5 704.3999634 359.6000061 704.5999756 359.8999939 704.6999512 L 369.10000610000003 706.5999756 C 369.7000122 706.6999512 369.60000610000003 707.6999512 369.00000000000006 707.6999512 L 354.00000000000006 707.6999512 C 353.60000610000003 707.6999512 353.29998780000005 707.2999268 353.50000000000006 706.8999633999999 L 359.60000610000003 696.2999877999999 C 359.8999939 695.7999878 360.7000122 696 360.6000061 696.5999756 z" stroke-linecap="round" />
</g>
		<g transform="matrix(0.6984136400990966 0 0 0.6984136400990966 -80.95918699038177 67.7454420381882)"  >
<path style="stroke: none; stroke-width: 1; stroke-dasharray: none; stroke-linecap: butt; stroke-dashoffset: 0; stroke-linejoin: miter; stroke-miterlimit: 4; fill: rgb(223,223,223); fill-rule: nonzero; opacity: 1;"  paint-order="stroke"  transform=" translate(-384.08197718407223, -663.7936148906185)" d="M 383.2999878 659.4000244 L 382.39999389999997 665.7000122000001 C 382.39999389999997 665.9000244 382.49999999999994 666.2000122000001 382.7999878 666.2000122000001 L 390.5 667.7999878 C 391 667.8999634 390.8999939 668.7000122000001 390.3999939 668.7000122000001 L 377.79998780000005 668.7000122000001 C 377.50000000000006 668.7000122000001 377.1999817000001 668.2999878 377.3999939 668.0000000000001 L 382.5 659.0999756 C 382.7000122 658.7000122 383.3999939 658.9000244 383.2999878 659.4000244 z" stroke-linecap="round" />
</g>
		<g transform="matrix(0.6984136400990966 0 0 0.6984136400990966 -0.0004480716115153882 133.29601734865068)"  >
<polygon style="stroke: none; stroke-width: 1; stroke-dasharray: none; stroke-linecap: butt; stroke-dashoffset: 0; stroke-linejoin: miter; stroke-miterlimit: 4; fill: rgb(36,36,36); fill-rule: nonzero; opacity: 1;"  paint-order="stroke"  points="56.90000915000002,2.0500182999999197 -56.90000915000002,2.0500182999999197 -55.90000915000002,-2.0500183000000334 55.90000915000002,-2.0500183000000334 " />
</g>
</g>
</g>
<g transform="matrix(1.9211538461538462 0 0 1.9211538461538462 640.067720673077 627.3228855210301)" id="text-logo-path-group"  >
<g style=""  paint-order="stroke"   >
		<g transform="matrix(1 0 0 1 0 0)" id="text-logo-path-0"  >
<path style="stroke: none; stroke-width: 0; stroke-dasharray: none; stroke-linecap: butt; stroke-dashoffset: 0; stroke-linejoin: miter; stroke-miterlimit: 4; fill: rgb(36,36,36); fill-rule: nonzero; opacity: 1;"  paint-order="stroke"  transform=" translate(-262.94500000000005, 18.28)" d="M 36 -36.57 L 36 -25.19 L 27.92 -25.19 L 27.92 -28.86 L 24.91 -28.86 L 24.91 -7.71 L 28.2 -7.71 L 28.2 0 L 8.46 0 L 8.46 -7.71 L 11.75 -7.71 L 11.75 -28.86 L 8.74 -28.86 L 8.74 -25.19 L 0.66 -25.19 L 0.66 -36.57 L 36 -36.57 Z M 79.9 -36.57 L 79.9 -28.86 L 77.55 -28.86 L 77.55 -7.71 L 79.9 -7.71 L 79.9 0 L 62.13 0 L 62.13 -7.71 L 64.39 -7.71 L 64.39 -15.46 L 57.81 -15.46 L 57.81 -7.71 L 60.07 -7.71 L 60.07 0 L 42.3 0 L 42.3 -7.71 L 44.65 -7.71 L 44.65 -28.86 L 42.3 -28.86 L 42.3 -36.57 L 60.07 -36.57 L 60.07 -28.86 L 57.81 -28.86 L 57.81 -21.71 L 64.39 -21.71 L 64.39 -28.86 L 62.13 -28.86 L 62.13 -36.57 L 79.9 -36.57 Z M 118.21 0 L 86.48 0 L 86.48 -7.71 L 88.83 -7.71 L 88.83 -28.86 L 86.48 -28.86 L 86.48 -36.57 L 118.21 -36.57 L 118.21 -22.37 L 107.68 -22.37 L 107.68 -28.86 L 101.99 -28.86 L 101.99 -21.43 L 106.13 -21.43 L 106.13 -16.07 L 101.99 -16.07 L 101.99 -7.71 L 107.68 -7.71 L 107.68 -15.13 L 118.21 -15.13 L 118.21 0 Z M 178.93 -18.75 L 178.93 -11.75 L 176.58 -11.75 L 176.58 -2.35 Q 174.51 -1.18 170.54 -0.26 Q 166.57 0.66 161.96 0.66 L 161.96 0.66 Q 153.17 0.66 148.19 -3.97 Q 143.21 -8.6 143.21 -18.28 L 143.21 -18.28 Q 143.21 -28.2 148.17 -32.71 Q 153.13 -37.22 162.34 -37.22 L 162.34 -37.22 Q 166.8 -37.22 170.7 -36.28 Q 174.61 -35.34 176.58 -34.17 L 176.58 -34.17 L 176.58 -22.94 L 164.83 -22.94 L 164.83 -25.14 Q 164.83 -27.12 164.01 -27.99 Q 163.18 -28.86 161.4 -28.86 L 161.4 -28.86 Q 159.61 -28.86 158.79 -27.99 Q 157.97 -27.12 157.97 -25.14 L 157.97 -25.14 L 157.97 -11.42 Q 157.97 -9.45 158.79 -8.58 Q 159.61 -7.71 161.4 -7.71 L 161.4 -7.71 Q 163.18 -7.71 164.01 -8.58 Q 164.83 -9.45 164.83 -11.42 L 164.83 -11.42 L 164.83 -11.75 L 162.29 -11.75 L 162.29 -18.75 L 178.93 -18.75 Z M 211.5 -36.57 L 219.44 -7.71 L 221.32 -7.71 L 221.32 0 L 202.9 0 L 202.9 -7.71 L 205.72 -7.71 L 204.97 -11.47 L 198.57 -11.47 L 197.82 -7.71 L 200.64 -7.71 L 200.64 0 L 184.57 0 L 184.57 -7.71 L 186.45 -7.71 L 194.39 -36.57 L 211.5 -36.57 Z M 201.54 -25.8 L 199.61 -16.45 L 203.93 -16.45 L 202.01 -25.8 L 201.54 -25.8 Z M 279.37 -36.57 L 279.37 -28.86 L 277.02 -28.86 L 277.02 -7.71 L 279.37 -7.71 L 279.37 0 L 261.6 0 L 261.6 -7.71 L 263.86 -7.71 L 263.86 -24.16 L 255.87 0 L 248.91 0 L 240.69 -23.92 L 240.69 -7.71 L 242.94 -7.71 L 242.94 0 L 227.53 0 L 227.53 -7.71 L 229.88 -7.71 L 229.88 -28.86 L 227.53 -28.86 L 227.53 -36.57 L 249.05 -36.57 L 253.94 -21.9 L 258.64 -36.57 L 279.37 -36.57 Z M 317.67 0 L 285.95 0 L 285.95 -7.71 L 288.3 -7.71 L 288.3 -28.86 L 285.95 -28.86 L 285.95 -36.57 L 317.67 -36.57 L 317.67 -22.37 L 307.14 -22.37 L 307.14 -28.86 L 301.46 -28.86 L 301.46 -21.43 L 305.59 -21.43 L 305.59 -16.07 L 301.46 -16.07 L 301.46 -7.71 L 307.14 -7.71 L 307.14 -15.13 L 317.67 -15.13 L 317.67 0 Z M 357.53 0.66 Q 353.02 0.66 349 -0.12 Q 344.98 -0.89 342.82 -1.88 L 342.82 -1.88 L 342.82 -11.19 L 353.16 -11.19 Q 353.16 -9.73 353.82 -9.07 Q 354.47 -8.41 356.21 -8.41 L 356.21 -8.41 Q 357.67 -8.41 358.3 -8.86 Q 358.94 -9.31 358.94 -10.2 L 358.94 -10.2 Q 358.94 -10.95 358.33 -11.49 Q 357.72 -12.03 356.21 -12.6 L 356.21 -12.6 L 352.17 -14.01 Q 346.95 -15.98 344.67 -18.66 Q 342.39 -21.34 342.39 -25.9 L 342.39 -25.9 Q 342.39 -31.44 346.04 -34.33 Q 349.68 -37.22 358.19 -37.22 L 358.19 -37.22 Q 362.28 -37.22 365.87 -36.4 Q 369.47 -35.58 371.68 -34.22 L 371.68 -34.22 L 371.68 -25.8 L 362.28 -25.8 Q 362.28 -28.15 359.36 -28.15 L 359.36 -28.15 Q 357.95 -28.15 357.36 -27.8 Q 356.78 -27.45 356.78 -26.55 L 356.78 -26.55 Q 356.78 -25.76 357.46 -25.29 Q 358.14 -24.82 359.69 -24.3 L 359.69 -24.3 L 363.78 -22.89 Q 368.76 -21.2 371.04 -18.49 Q 373.32 -15.79 373.32 -11.42 L 373.32 -11.42 Q 373.32 -5.45 369.3 -2.4 Q 365.28 0.66 357.53 0.66 L 357.53 0.66 Z M 416.94 -36.57 L 416.94 -28.86 L 414.59 -28.86 L 414.59 -7.71 L 416.94 -7.71 L 416.94 0 L 399.17 0 L 399.17 -7.71 L 401.43 -7.71 L 401.43 -15.46 L 394.85 -15.46 L 394.85 -7.71 L 397.1 -7.71 L 397.1 0 L 379.34 0 L 379.34 -7.71 L 381.69 -7.71 L 381.69 -28.86 L 379.34 -28.86 L 379.34 -36.57 L 397.1 -36.57 L 397.1 -28.86 L 394.85 -28.86 L 394.85 -21.71 L 401.43 -21.71 L 401.43 -28.86 L 399.17 -28.86 L 399.17 -36.57 L 416.94 -36.57 Z M 455.24 0 L 423.52 0 L 423.52 -7.71 L 425.87 -7.71 L 425.87 -28.86 L 423.52 -28.86 L 423.52 -36.57 L 455.24 -36.57 L 455.24 -22.37 L 444.71 -22.37 L 444.71 -28.86 L 439.03 -28.86 L 439.03 -21.43 L 443.16 -21.43 L 443.16 -16.07 L 439.03 -16.07 L 439.03 -7.71 L 444.71 -7.71 L 444.71 -15.13 L 455.24 -15.13 L 455.24 0 Z M 490.82 0 L 461.73 0 L 461.73 -7.71 L 464.08 -7.71 L 464.08 -28.86 L 461.73 -28.86 L 461.73 -36.57 L 481.56 -36.57 L 481.56 -28.86 L 477.24 -28.86 L 477.24 -7.71 L 481.47 -7.71 L 481.47 -12.03 L 490.82 -12.03 L 490.82 0 Z M 518.79 0 L 497.12 0 L 497.12 -7.71 L 499.47 -7.71 L 499.47 -28.86 L 497.12 -28.86 L 497.12 -36.57 L 525.23 -36.57 L 525.23 -24.39 L 516.91 -24.39 L 516.91 -28.86 L 512.63 -28.86 L 512.63 -21.06 L 519.73 -21.06 L 519.73 -15.7 L 512.63 -15.7 L 512.63 -7.71 L 518.79 -7.71 L 518.79 0 Z" stroke-linecap="round" />
</g>
</g>
</g>
<g transform="matrix(1.9211538461538462 0 0 1.9211538461538462 640 710.2346876134422)" id="tagline-556dd3bc-5c13-40ff-90f4-5d2bdaf08fb9-logo-path-group"  >
<g style=""  paint-order="stroke"   >
		<g transform="matrix(1 0 0 1 0 0)" id="tagline-556dd3bc-5c13-40ff-90f4-5d2bdaf08fb9-logo-path-0"  >
<path style="stroke: none; stroke-width: 0; stroke-dasharray: none; stroke-linecap: butt; stroke-dashoffset: 0; stroke-linejoin: miter; stroke-miterlimit: 4; fill: rgb(36,36,36); fill-rule: nonzero; opacity: 1;"  paint-order="stroke"  transform=" translate(-114.055, 13.375)" d="M 17.65 -11.21 L 17.65 -11.21 Q 18.17 -10.14 18.17 -8.36 L 18.17 -8.36 Q 18.17 -6.66 17.54 -5 L 17.54 -5 Q 16.91 -3.37 15.72 -2.22 L 15.72 -2.22 Q 14.54 -1.04 12.8 -0.37 L 12.8 -0.37 Q 11.1 0.3 8.88 0.3 L 8.88 0.3 L 8.32 0.3 Q 4.81 0.3 0.67 -1.11 L 0.67 -1.11 L 0.67 -7.99 L 2.77 -7.99 Q 3.48 -7.99 3.63 -7.33 L 3.63 -7.33 Q 3.74 -6.84 3.96 -4.25 L 3.96 -4.25 Q 5.51 -3.77 9.03 -3.77 L 9.03 -3.77 Q 11.14 -3.77 12.32 -4.77 L 12.32 -4.77 Q 13.47 -5.77 13.47 -7.66 L 13.47 -7.66 Q 13.47 -8.7 12.95 -9.4 L 12.95 -9.4 Q 12.47 -10.06 11.54 -10.51 L 11.54 -10.51 Q 10.62 -10.99 9.58 -11.29 L 9.58 -11.29 L 8.77 -11.51 L 7.33 -11.95 Q 6.22 -12.32 5.07 -12.84 L 5.07 -12.84 Q 4.03 -13.32 3.07 -14.21 L 3.07 -14.21 Q 2.18 -15.02 1.7 -16.28 L 1.7 -16.28 Q 1.15 -17.65 1.15 -19.35 L 1.15 -19.35 Q 1.15 -20.87 1.74 -22.2 L 1.74 -22.2 Q 2.29 -23.61 3.44 -24.68 L 3.44 -24.68 Q 4.51 -25.68 6.18 -26.38 L 6.18 -26.38 Q 7.81 -27.05 9.92 -27.05 L 9.92 -27.05 Q 13.8 -27.05 17.57 -25.53 L 17.57 -25.53 L 17.57 -18.68 L 15.47 -18.68 Q 14.8 -18.68 14.61 -19.39 L 14.61 -19.39 Q 14.5 -19.91 14.28 -22.38 L 14.28 -22.38 Q 12.95 -22.98 9.95 -22.98 L 9.95 -22.98 Q 8.95 -22.98 8.18 -22.75 L 8.18 -22.75 Q 7.33 -22.46 6.88 -22.05 L 6.88 -22.05 Q 6.33 -21.57 6.07 -20.98 L 6.07 -20.98 Q 5.81 -20.42 5.81 -19.61 L 5.81 -19.61 Q 5.81 -18.72 6.36 -18.06 L 6.36 -18.06 Q 6.92 -17.39 7.73 -16.98 L 7.73 -16.98 Q 8.81 -16.46 9.73 -16.17 L 9.73 -16.17 Q 10.1 -16.06 11.99 -15.43 L 11.99 -15.43 Q 12.76 -15.17 14.24 -14.5 L 14.24 -14.5 Q 15.35 -14.02 16.24 -13.17 L 16.24 -13.17 Q 17.2 -12.28 17.65 -11.21 Z M 32.78 -23.42 L 32.56 -23.38 Q 32.45 -23.38 32.32 -23.35 Q 32.19 -23.31 32 -23.27 L 32 -23.27 L 30.93 -23.09 L 30.93 -3.66 L 32 -3.48 Q 32.19 -3.44 32.32 -3.4 Q 32.45 -3.37 32.56 -3.37 L 32.56 -3.37 L 32.78 -3.33 Q 33.71 -3.11 33.71 -2.18 L 33.71 -2.18 L 33.71 0 L 23.12 0 L 23.12 -2.18 Q 23.12 -3.11 24.05 -3.33 L 24.05 -3.33 L 24.27 -3.37 L 24.83 -3.48 L 25.94 -3.66 L 25.94 -23.09 L 24.83 -23.27 Q 24.64 -23.31 24.51 -23.35 Q 24.38 -23.38 24.27 -23.38 L 24.27 -23.38 L 24.05 -23.42 Q 23.12 -23.64 23.12 -24.57 L 23.12 -24.57 L 23.12 -26.75 L 33.71 -26.75 L 33.71 -24.57 Q 33.71 -23.64 32.78 -23.42 L 32.78 -23.42 Z M 67.04 -26.75 L 67.04 -24.57 Q 67.04 -23.64 66.12 -23.42 L 66.12 -23.42 L 65.9 -23.38 Q 65.79 -23.38 65.66 -23.35 Q 65.53 -23.31 65.34 -23.27 L 65.34 -23.27 L 64.27 -23.09 L 64.27 0 L 61.68 0 Q 61.16 0 60.72 -0.18 L 60.72 -0.18 Q 60.35 -0.33 59.94 -0.85 L 59.94 -0.85 L 45.95 -18.65 Q 46.03 -17.83 46.03 -17.5 L 46.03 -17.5 L 46.06 -16.43 L 46.06 -3.66 L 48.47 -3.33 Q 49.39 -3.11 49.39 -2.18 L 49.39 -2.18 L 49.39 0 L 38.89 0 L 38.89 -2.18 Q 38.89 -3.11 39.81 -3.33 L 39.81 -3.33 L 40.03 -3.37 L 40.59 -3.48 L 41.7 -3.66 L 41.7 -23.09 L 40.59 -23.27 Q 40.4 -23.31 40.27 -23.35 Q 40.14 -23.38 40.03 -23.38 L 40.03 -23.38 L 39.81 -23.42 Q 38.89 -23.64 38.89 -24.57 L 38.89 -24.57 L 38.89 -26.75 L 44.29 -26.75 L 44.84 -26.71 Q 45.1 -26.71 45.25 -26.6 L 45.25 -26.6 Q 45.4 -26.57 45.58 -26.38 L 45.58 -26.38 L 45.95 -25.94 L 60.01 -8.07 L 59.9 -9.32 Q 59.87 -9.73 59.87 -10.51 L 59.87 -10.51 L 59.87 -23.09 L 57.46 -23.42 Q 56.54 -23.64 56.54 -24.57 L 56.54 -24.57 L 56.54 -26.75 L 67.04 -26.75 Z M 93.94 -18.31 L 91.8 -18.31 Q 91.13 -18.31 90.95 -18.98 L 90.95 -18.98 Q 90.83 -19.46 90.61 -21.94 L 90.61 -21.94 Q 87.69 -22.79 85.51 -22.79 L 85.51 -22.79 Q 83.55 -22.79 82.03 -22.16 L 82.03 -22.16 Q 80.44 -21.5 79.33 -20.28 L 79.33 -20.28 Q 78.18 -19.02 77.55 -17.32 L 77.55 -17.32 Q 76.89 -15.54 76.89 -13.36 L 76.89 -13.36 Q 76.89 -11.14 77.55 -9.36 L 77.55 -9.36 Q 78.25 -7.51 79.25 -6.4 L 79.25 -6.4 Q 80.33 -5.22 81.84 -4.55 L 81.84 -4.55 Q 83.25 -3.92 85.03 -3.92 L 85.03 -3.92 Q 86.06 -3.92 86.88 -4.03 L 86.88 -4.03 Q 87.73 -4.14 88.39 -4.37 L 88.39 -4.37 Q 89.02 -4.59 89.69 -5 L 89.69 -5 Q 90.24 -5.33 90.91 -5.96 L 90.91 -5.96 Q 91.02 -6.07 91.32 -6.22 L 91.32 -6.22 Q 91.46 -6.29 91.76 -6.29 L 91.76 -6.29 Q 92.2 -6.29 92.46 -5.99 L 92.46 -5.99 L 94.42 -3.85 Q 92.8 -1.81 90.43 -0.78 L 90.43 -0.78 Q 87.99 0.3 84.69 0.3 L 84.69 0.3 Q 81.84 0.3 79.36 -0.74 L 79.36 -0.74 Q 76.92 -1.78 75.29 -3.55 L 75.29 -3.55 Q 73.56 -5.44 72.7 -7.88 L 72.7 -7.88 Q 71.82 -10.4 71.82 -13.36 L 71.82 -13.36 Q 71.82 -16.43 72.82 -18.91 L 72.82 -18.91 Q 73.81 -21.39 75.63 -23.2 L 75.63 -23.2 Q 77.51 -25.09 79.96 -26.05 L 79.96 -26.05 Q 82.47 -27.05 85.54 -27.05 L 85.54 -27.05 Q 88.95 -27.05 93.94 -25.12 L 93.94 -25.12 L 93.94 -18.31 Z M 118.99 -26.75 L 118.99 -19.72 L 116.85 -19.72 Q 116.18 -19.72 116 -20.42 L 116 -20.42 Q 115.81 -21.87 115.74 -22.79 L 115.74 -22.79 L 107.11 -22.79 L 107.11 -15.39 L 116.18 -15.39 L 116.18 -11.54 L 107.11 -11.54 L 107.11 -4 L 115.74 -4 Q 115.81 -4.92 116 -6.36 L 116 -6.36 Q 116.18 -7.07 116.85 -7.07 L 116.85 -7.07 L 118.99 -7.07 L 118.99 0 L 99.31 0 L 99.31 -2.18 Q 99.31 -3.11 100.23 -3.33 L 100.23 -3.33 L 100.45 -3.37 Q 100.57 -3.37 100.7 -3.4 Q 100.83 -3.44 101.01 -3.48 L 101.01 -3.48 L 102.12 -3.66 L 102.12 -23.09 L 101.01 -23.27 Q 100.83 -23.31 100.7 -23.35 Q 100.57 -23.38 100.45 -23.38 L 100.45 -23.38 L 100.23 -23.42 Q 99.31 -23.64 99.31 -24.57 L 99.31 -24.57 L 99.31 -26.75 L 118.99 -26.75 Z M 155.14 0 L 136.38 0 L 136.38 -1.52 Q 136.38 -1.92 136.57 -2.48 L 136.57 -2.48 Q 136.79 -3 137.2 -3.4 L 137.2 -3.4 L 145.3 -11.54 L 145.96 -12.21 Q 147.11 -13.47 147.15 -13.5 L 147.15 -13.5 Q 147.93 -14.47 148.48 -15.39 L 148.48 -15.39 Q 149.07 -16.39 149.33 -17.28 L 149.33 -17.28 Q 149.59 -18.17 149.59 -19.28 L 149.59 -19.28 Q 149.59 -20.31 149.33 -20.98 L 149.33 -20.98 Q 149.07 -21.64 148.52 -22.2 L 148.52 -22.2 Q 148 -22.72 147.3 -22.94 L 147.3 -22.94 Q 146.45 -23.2 145.71 -23.2 L 145.71 -23.2 Q 144.08 -23.2 143 -22.35 L 143 -22.35 Q 141.97 -21.53 141.52 -20.13 L 141.52 -20.13 Q 141.3 -19.43 140.9 -19.13 L 140.9 -19.13 Q 140.49 -18.8 139.86 -18.8 L 139.86 -18.8 Q 139.71 -18.8 139.27 -18.87 L 139.27 -18.87 L 136.86 -19.28 Q 137.12 -21.2 137.94 -22.68 L 137.94 -22.68 Q 138.71 -24.12 139.9 -25.09 L 139.9 -25.09 Q 141.01 -26.05 142.63 -26.57 L 142.63 -26.57 Q 144.11 -27.05 145.96 -27.05 L 145.96 -27.05 Q 147.81 -27.05 149.37 -26.49 L 149.37 -26.49 Q 150.81 -25.97 151.96 -24.94 L 151.96 -24.94 Q 153.03 -23.98 153.66 -22.53 L 153.66 -22.53 Q 154.29 -21.09 154.29 -19.43 L 154.29 -19.43 Q 154.29 -17.98 153.85 -16.69 L 153.85 -16.69 Q 153.4 -15.43 152.7 -14.28 L 152.7 -14.28 Q 151.96 -13.06 151 -12.06 L 151 -12.06 L 148.92 -9.88 L 142.89 -3.7 Q 143.41 -3.85 144.63 -4.11 L 144.63 -4.11 Q 145.74 -4.25 146.26 -4.25 L 146.26 -4.25 L 152.18 -4.25 Q 152.29 -5.81 152.33 -5.92 L 152.33 -5.92 Q 152.51 -6.59 153.18 -6.59 L 153.18 -6.59 L 155.14 -6.59 L 155.14 0 Z M 179.86 -13.39 L 179.86 -13.39 Q 179.86 -9.73 179.12 -7.29 L 179.12 -7.29 Q 178.3 -4.59 177.04 -3.03 L 177.04 -3.03 Q 175.71 -1.37 173.9 -0.52 L 173.9 -0.52 Q 172.16 0.3 170.01 0.3 L 170.01 0.3 Q 167.87 0.3 166.13 -0.52 L 166.13 -0.52 Q 164.43 -1.29 163.06 -3.03 L 163.06 -3.03 Q 161.73 -4.7 160.99 -7.29 L 160.99 -7.29 Q 160.25 -9.92 160.25 -13.39 L 160.25 -13.39 Q 160.25 -16.84 160.99 -19.46 L 160.99 -19.46 Q 161.73 -22.05 163.06 -23.72 L 163.06 -23.72 Q 164.43 -25.46 166.13 -26.23 L 166.13 -26.23 Q 167.87 -27.05 170.01 -27.05 L 170.01 -27.05 Q 172.16 -27.05 173.9 -26.23 L 173.9 -26.23 Q 175.71 -25.38 177.04 -23.72 L 177.04 -23.72 Q 178.3 -22.16 179.12 -19.46 L 179.12 -19.46 Q 179.86 -17.02 179.86 -13.39 Z M 175.12 -13.39 L 175.12 -13.39 Q 175.12 -16.46 174.71 -18.2 L 174.71 -18.2 Q 174.23 -20.2 173.57 -21.24 L 173.57 -21.24 Q 172.83 -22.38 171.94 -22.79 L 171.94 -22.79 Q 171.01 -23.24 170.01 -23.24 L 170.01 -23.24 Q 169.02 -23.24 168.13 -22.79 L 168.13 -22.79 Q 167.2 -22.35 166.5 -21.24 L 166.5 -21.24 Q 165.87 -20.28 165.39 -18.2 L 165.39 -18.2 Q 164.95 -16.32 164.95 -13.39 L 164.95 -13.39 Q 164.95 -10.47 165.39 -8.58 L 165.39 -8.58 Q 165.87 -6.51 166.5 -5.55 L 166.5 -5.55 Q 167.24 -4.4 168.13 -3.96 L 168.13 -3.96 Q 169.09 -3.48 170.01 -3.48 L 170.01 -3.48 Q 170.9 -3.48 171.94 -3.96 L 171.94 -3.96 Q 172.83 -4.37 173.57 -5.51 L 173.57 -5.51 Q 174.23 -6.55 174.71 -8.58 L 174.71 -8.58 Q 175.12 -10.32 175.12 -13.39 Z M 203.68 0 L 184.93 0 L 184.93 -1.52 Q 184.93 -1.92 185.11 -2.48 L 185.11 -2.48 Q 185.33 -3 185.74 -3.4 L 185.74 -3.4 L 193.84 -11.54 L 194.51 -12.21 Q 195.66 -13.47 195.69 -13.5 L 195.69 -13.5 Q 196.47 -14.47 197.02 -15.39 L 197.02 -15.39 Q 197.62 -16.39 197.88 -17.28 L 197.88 -17.28 Q 198.13 -18.17 198.13 -19.28 L 198.13 -19.28 Q 198.13 -20.31 197.88 -20.98 L 197.88 -20.98 Q 197.62 -21.64 197.06 -22.2 L 197.06 -22.2 Q 196.54 -22.72 195.84 -22.94 L 195.84 -22.94 Q 194.99 -23.2 194.25 -23.2 L 194.25 -23.2 Q 192.62 -23.2 191.55 -22.35 L 191.55 -22.35 Q 190.51 -21.53 190.07 -20.13 L 190.07 -20.13 Q 189.85 -19.43 189.44 -19.13 L 189.44 -19.13 Q 189.03 -18.8 188.4 -18.8 L 188.4 -18.8 Q 188.26 -18.8 187.81 -18.87 L 187.81 -18.87 L 185.41 -19.28 Q 185.67 -21.2 186.48 -22.68 L 186.48 -22.68 Q 187.26 -24.12 188.44 -25.09 L 188.44 -25.09 Q 189.55 -26.05 191.18 -26.57 L 191.18 -26.57 Q 192.66 -27.05 194.51 -27.05 L 194.51 -27.05 Q 196.36 -27.05 197.91 -26.49 L 197.91 -26.49 Q 199.36 -25.97 200.5 -24.94 L 200.5 -24.94 Q 201.58 -23.98 202.2 -22.53 L 202.2 -22.53 Q 202.83 -21.09 202.83 -19.43 L 202.83 -19.43 Q 202.83 -17.98 202.39 -16.69 L 202.39 -16.69 Q 201.95 -15.43 201.24 -14.28 L 201.24 -14.28 Q 200.5 -13.06 199.54 -12.06 L 199.54 -12.06 L 197.47 -9.88 L 191.44 -3.7 Q 191.96 -3.85 193.18 -4.11 L 193.18 -4.11 Q 194.29 -4.25 194.8 -4.25 L 194.8 -4.25 L 200.72 -4.25 Q 200.84 -5.81 200.87 -5.92 L 200.87 -5.92 Q 201.06 -6.59 201.72 -6.59 L 201.72 -6.59 L 203.68 -6.59 L 203.68 0 Z M 227.44 0 L 208.68 0 L 208.68 -1.52 Q 208.68 -1.92 208.86 -2.48 L 208.86 -2.48 Q 209.09 -3 209.49 -3.4 L 209.49 -3.4 L 217.6 -11.54 L 218.26 -12.21 Q 219.41 -13.47 219.45 -13.5 L 219.45 -13.5 Q 220.22 -14.47 220.78 -15.39 L 220.78 -15.39 Q 221.37 -16.39 221.63 -17.28 L 221.63 -17.28 Q 221.89 -18.17 221.89 -19.28 L 221.89 -19.28 Q 221.89 -20.31 221.63 -20.98 L 221.63 -20.98 Q 221.37 -21.64 220.82 -22.2 L 220.82 -22.2 Q 220.3 -22.72 219.59 -22.94 L 219.59 -22.94 Q 218.74 -23.2 218 -23.2 L 218 -23.2 Q 216.38 -23.2 215.3 -22.35 L 215.3 -22.35 Q 214.27 -21.53 213.82 -20.13 L 213.82 -20.13 Q 213.6 -19.43 213.19 -19.13 L 213.19 -19.13 Q 212.79 -18.8 212.16 -18.8 L 212.16 -18.8 Q 212.01 -18.8 211.57 -18.87 L 211.57 -18.87 L 209.16 -19.28 Q 209.42 -21.2 210.23 -22.68 L 210.23 -22.68 Q 211.01 -24.12 212.19 -25.09 L 212.19 -25.09 Q 213.3 -26.05 214.93 -26.57 L 214.93 -26.57 Q 216.41 -27.05 218.26 -27.05 L 218.26 -27.05 Q 220.11 -27.05 221.67 -26.49 L 221.67 -26.49 Q 223.11 -25.97 224.26 -24.94 L 224.26 -24.94 Q 225.33 -23.98 225.96 -22.53 L 225.96 -22.53 Q 226.59 -21.09 226.59 -19.43 L 226.59 -19.43 Q 226.59 -17.98 226.14 -16.69 L 226.14 -16.69 Q 225.7 -15.43 225 -14.28 L 225 -14.28 Q 224.26 -13.06 223.29 -12.06 L 223.29 -12.06 L 221.22 -9.88 L 215.19 -3.7 Q 215.71 -3.85 216.93 -4.11 L 216.93 -4.11 Q 218.04 -4.25 218.56 -4.25 L 218.56 -4.25 L 224.48 -4.25 Q 224.59 -5.81 224.63 -5.92 L 224.63 -5.92 Q 224.81 -6.59 225.48 -6.59 L 225.48 -6.59 L 227.44 -6.59 L 227.44 0 Z" stroke-linecap="round" />
</g>
</g>
</g>
</svg>